<svg xmlns="http://www.w3.org/2000/svg" viewBox="90 174 2242 1960" fill="white"><path transform="matrix(2.52792 0 0 2.52819 0 -0.000488281)" d="M377.013 69.844C392.722 80.1381 437.031 167.885 449.633 188.304C456.488 199.411 465.384 217.973 475.492 228.15C483.299 221.957 491.041 207.29 496.283 198.473C507.122 180.239 517.553 159.246 527.858 140.995C537.308 124.257 558.872 81.4261 572.493 70.3803C579.722 77.4772 596.037 106.629 602.234 117.247C619.755 147.341 637.115 177.529 654.313 207.809L806.611 472.24L878.632 595.258C887.778 610.614 896.755 626.071 905.561 641.624C911.504 652.292 917.917 663.862 922.272 675.249C897.824 676.948 875.106 675.526 850.806 675.539C811.927 675.646 773.05 676.009 734.176 676.629C747.696 708.39 765.98 735.499 784.249 764.597C792.995 778.329 801.277 792.351 809.081 806.639C816.157 819.292 822.304 828.977 827.588 842.531C798.792 843.397 769.982 843.701 741.175 843.443L303.857 843.513L206.925 843.445C188.92 843.483 143.999 845.451 127.957 840.556C130.377 823.131 166.746 767.052 176.684 749.628C190.35 725.668 205.359 702.113 218.31 676.953C203.733 675.759 186.577 676.373 171.818 676.384L88.8259 675.772C72.1705 675.68 53.0402 676.469 36.7148 675.097C35.8523 662.718 39.9697 655.593 45.4157 644.568C52.6176 629.989 62.156 616.471 70.3076 602.486C83.2987 580.199 96.1962 557.787 109.056 535.419C153.788 456.517 199.011 377.894 244.72 299.554L332.476 147.241C347.06 121.734 360.822 94.2648 377.013 69.844ZM504.884 538.063C486.627 559.107 468.903 591.867 454.689 616.296C450.81 622.962 442.541 638.225 440.047 644.81C444.24 645.27 452.048 645.057 456.433 645.046L484.101 644.986L576.212 644.997C626.184 645.257 676.157 645.228 726.129 644.911C772.758 644.956 821.652 645.366 868.123 644.261C861.16 629.301 849.871 610.587 841.345 596.075C828.09 573.764 814.984 551.364 802.028 528.877L581.446 143.341C579.849 140.56 575.064 130.468 572.137 131.031C564.678 142.374 557.117 155.665 550.284 167.439C539.987 185.168 529.821 202.973 519.789 220.853C496.343 262.777 492.487 256.169 516.332 299.732C529.563 323.429 543.311 346.834 557.564 369.931C560.265 364.933 567.442 351.201 575.322 353.634C577.536 354.318 582.832 362.884 584.417 365.487C591.725 377.49 598.234 390.149 605.133 402.398C627.02 438.66 646.878 476.22 669.531 512.001C674.682 520.349 682.889 535.467 665.478 535.881C660.777 535.993 655.947 535.766 651.238 535.677C643.635 536.242 628.906 535.775 620.87 535.753C600.114 535.699 579.358 535.518 558.604 535.207C543.429 534.971 519.549 534.322 504.884 538.063ZM182.44 811.664L677.228 811.477C708.53 811.496 742.054 812.34 773.106 811.111C756.152 780.358 738.9 751.265 720.672 721.248C711.202 705.652 705.28 693.026 694.469 677.668C653.939 677.333 613.982 676.664 573.399 677.738C575.756 682.911 581.15 692.474 578.851 698.122C578.141 699.867 576.638 701.013 574.927 701.696C563.163 706.389 383.102 705.22 373.697 701.404C372.262 699.901 372.037 698.149 372.087 696.129C372.485 680.118 424.177 601.136 434.787 583.476C441.246 572.725 451.423 557.435 454.134 545.33C450.928 537.653 445.615 528.305 441.507 520.872C434.946 509.018 428.291 497.217 421.541 485.47L407.625 461.357C404.777 456.48 398.579 444.455 393.704 442.344C371.986 477.058 352.585 511.456 332.263 546.982L258.494 675.515L210.677 758.216C202.149 773.1 188.222 796.145 182.44 811.664ZM377.514 130.989C363.104 155.71 350.327 180.365 336.31 205.133L266.49 326.982L210.55 424.343C182.195 472.334 154.266 520.577 126.768 569.065C112.816 593.397 96.1474 617.728 85.4365 643.531C108.587 645.071 130.651 645.011 153.863 645.058C180.547 645.284 207.233 645.03 233.909 644.298C248.61 622.441 260.661 600.516 273.654 577.681C281.532 563.835 289.755 551.156 297.274 537.006C289.144 536.373 274.375 536.027 276.436 524.039C277.696 516.713 284.025 507.596 288.008 501.25C303.711 475.355 319.147 449.298 334.312 423.084C343.336 407.337 367.699 361.069 379.56 349.707C385.533 356.066 392.816 368.423 397.466 376.114C405.504 389.486 413.381 402.954 421.095 416.516C436.798 443.992 454.206 473.662 469.084 501.383C509.474 501.454 553.44 502.657 593.522 501.024C571.266 468.352 552.002 428.747 532.353 394.17C495.191 329.117 457.671 264.27 419.795 199.632C412.386 187.001 386.716 139.349 377.514 130.989Z"/><path transform="matrix(2.52792 0 0 2.52819 0 -0.000488281)" d="M669.531 512.001C674.682 520.349 682.889 535.467 665.478 535.881C660.777 535.993 655.947 535.766 651.238 535.677C653.712 534.899 660.45 535.177 663.329 535.202C667.155 524.984 663.045 522.631 669.531 512.001Z"/></svg>